<svg version="1.1" id="Layer_1" xmlns="http://www.w3.org/2000/svg" xmlns:xlink="http://www.w3.org/1999/xlink" x="0px" y="0px"
	 width="100%" viewBox="0 0 604 608" enable-background="new 0 0 604 608" xml:space="preserve">
<path fill="#F2DCBD" opacity="1.000000" stroke="none" 
	d="
M602.000000,609.000000 
	C401.727692,609.000000 201.455368,609.000000 1.091526,609.000000 
	C1.091526,406.456116 1.091526,203.912170 1.091526,1.000000 
	C66.356949,1.000000 131.714600,1.000000 197.521606,1.366666 
	C197.752243,2.345954 197.717712,3.193480 197.284790,3.532937 
	C194.547409,5.679303 192.595734,7.909602 195.229141,11.465430 
	C195.507309,11.841024 195.166168,12.676037 195.110779,13.297771 
	C194.768280,17.142300 194.405624,20.985268 194.109238,24.833340 
	C194.074875,25.279404 194.265427,25.963926 194.590820,26.183409 
	C199.491852,29.489296 199.538147,34.048771 198.289276,39.153851 
	C198.039734,40.173939 198.997604,41.511635 199.461624,42.677849 
	C199.929688,43.854183 200.905792,44.994308 200.919525,46.159019 
	C201.021896,54.834873 203.104446,63.415279 202.148087,72.151787 
	C202.054886,73.003036 203.059219,74.029343 203.673965,74.888649 
	C204.369095,75.860329 205.765656,76.676773 205.867355,77.662819 
	C206.200760,80.895134 206.028976,84.176338 206.177155,87.433022 
	C206.219543,88.364616 206.735916,89.265717 206.954208,90.199669 
	C208.413467,96.443001 211.614807,102.943466 210.769028,108.863014 
	C210.015274,114.138420 211.272446,115.114250 216.547684,115.645264 
	C213.902863,118.125610 212.103439,119.813126 209.477844,122.275452 
	C210.448730,122.844193 211.541809,123.303123 212.415710,124.026718 
	C217.102676,127.907570 219.987198,133.647385 218.844040,138.927826 
	C217.726608,144.089386 218.732086,145.221466 222.830688,145.311630 
	C222.830688,147.754211 222.547897,149.950516 222.912460,152.033508 
	C223.257629,154.005600 224.043518,156.002075 225.077087,157.722595 
	C226.041382,159.327820 227.586334,160.584198 228.809875,162.328735 
	C225.244583,169.039780 221.791641,175.442276 218.238205,181.788483 
	C190.987076,230.457108 163.715027,279.114014 136.460480,327.780762 
	C135.833618,328.900085 135.335968,330.091766 134.417694,331.997559 
	C146.880508,331.997559 158.704880,331.997559 171.349014,331.997559 
	C132.020493,402.296997 93.151733,471.774628 53.937611,541.869568 
	C56.658859,541.869568 58.317722,541.869629 59.976585,541.869568 
	C110.303246,541.868347 160.630142,541.800903 210.956192,541.976685 
	C215.576645,541.992798 218.042053,540.601379 220.156479,536.489563 
	C234.095123,509.383759 248.346893,482.439056 262.336243,455.359009 
	C264.012268,452.114655 265.922058,450.890564 269.621887,450.912231 
	C296.950653,451.072113 324.280792,450.992950 351.610504,451.007996 
	C353.221313,451.008881 354.832062,451.174561 356.747650,451.280396 
	C359.018005,481.616302 361.260651,511.582306 363.526459,541.857300 
	C376.564056,541.857300 389.045013,541.838074 401.525909,541.861206 
	C430.351227,541.914612 459.176453,541.988525 488.097534,542.416626 
	C490.756836,543.519409 493.301941,544.775818 495.888519,544.867981 
	C499.049896,544.980713 501.793793,545.141174 503.363403,548.321838 
	C505.919617,553.501526 514.387878,552.539001 515.176392,559.635681 
	C515.196960,559.821594 516.399414,559.865479 517.046936,559.994385 
	C522.779419,561.135620 523.957581,562.893311 522.413391,568.531067 
	C526.380249,569.383301 530.941040,569.282715 534.144531,571.318237 
	C538.374573,574.006104 546.159973,572.519287 546.359863,580.607483 
	C546.371033,581.060913 547.512695,581.739624 548.213806,581.877014 
	C550.646912,582.354065 553.130798,582.998108 555.571106,582.909607 
	C559.028625,582.784180 561.351990,583.537292 561.980408,587.368469 
	C562.131531,588.289612 563.064453,589.314636 563.916077,589.846191 
	C566.729553,591.602112 569.626953,593.238159 572.575867,594.757812 
	C574.939941,595.976013 577.425903,596.957764 579.857361,598.045349 
	C581.763306,598.897888 585.222778,599.601074 585.322632,600.629761 
	C585.985901,607.463257 590.879272,605.552002 594.897217,606.120544 
	C597.351501,606.467896 599.638062,608.000000 602.000000,609.000000 
z"/>
<path fill="#F3DEC1" opacity="1.000000" stroke="none" 
	d="
M228.875702,161.994141 
	C227.586334,160.584198 226.041382,159.327820 225.077087,157.722595 
	C224.043518,156.002075 223.257629,154.005600 222.912460,152.033508 
	C222.547897,149.950516 222.830688,147.754211 222.830688,145.311630 
	C218.732086,145.221466 217.726608,144.089386 218.844040,138.927826 
	C219.987198,133.647385 217.102676,127.907570 212.415710,124.026718 
	C211.541809,123.303123 210.448730,122.844193 209.477844,122.275452 
	C212.103439,119.813126 213.902863,118.125610 216.547684,115.645264 
	C211.272446,115.114250 210.015274,114.138420 210.769028,108.863014 
	C211.614807,102.943466 208.413467,96.443001 206.954208,90.199669 
	C206.735916,89.265717 206.219543,88.364616 206.177155,87.433022 
	C206.028976,84.176338 206.200760,80.895134 205.867355,77.662819 
	C205.765656,76.676773 204.369095,75.860329 203.673965,74.888649 
	C203.059219,74.029343 202.054886,73.003036 202.148087,72.151787 
	C203.104446,63.415279 201.021896,54.834873 200.919525,46.159019 
	C200.905792,44.994308 199.929688,43.854183 199.461624,42.677849 
	C198.997604,41.511635 198.039734,40.173939 198.289276,39.153851 
	C199.538147,34.048771 199.491852,29.489296 194.590820,26.183409 
	C194.265427,25.963926 194.074875,25.279404 194.109238,24.833340 
	C194.405624,20.985268 194.768280,17.142300 195.110779,13.297771 
	C195.166168,12.676037 195.507309,11.841024 195.229141,11.465430 
	C192.595734,7.909602 194.547409,5.679303 197.284790,3.532937 
	C197.717712,3.193480 197.752243,2.345954 197.985489,1.366666 
	C333.666656,1.000000 469.333344,1.000000 605.000000,1.000000 
	C605.000000,202.166641 605.006470,403.333282 604.858521,604.499817 
	C604.857544,605.789185 607.328430,609.127380 602.500000,609.000000 
	C599.638062,608.000000 597.351501,606.467896 594.897217,606.120544 
	C590.879272,605.552002 585.985901,607.463257 585.322632,600.629761 
	C585.222778,599.601074 581.763306,598.897888 579.857361,598.045349 
	C577.425903,596.957764 574.939941,595.976013 572.575867,594.757812 
	C569.626953,593.238159 566.729553,591.602112 563.916077,589.846191 
	C563.064453,589.314636 562.131531,588.289612 561.980408,587.368469 
	C561.351990,583.537292 559.028625,582.784180 555.571106,582.909607 
	C553.130798,582.998108 550.646912,582.354065 548.213806,581.877014 
	C547.512695,581.739624 546.371033,581.060913 546.359863,580.607483 
	C546.159973,572.519287 538.374573,574.006104 534.144531,571.318237 
	C530.941040,569.282715 526.380249,569.383301 522.413391,568.531067 
	C523.957581,562.893311 522.779419,561.135620 517.046936,559.994385 
	C516.399414,559.865479 515.196960,559.821594 515.176392,559.635681 
	C514.387878,552.539001 505.919617,553.501526 503.363403,548.321838 
	C501.793793,545.141174 499.049896,544.980713 495.888519,544.867981 
	C493.301941,544.775818 490.756836,543.519409 488.561829,542.346924 
	C502.468414,541.914856 516.006531,541.914856 529.717407,541.914856 
	C522.819519,471.397827 516.010010,401.784241 509.157196,331.728058 
	C496.960693,331.728058 485.497528,331.728058 473.928070,331.573303 
	C473.653076,331.228882 473.454895,331.077911 473.162537,330.529388 
	C472.281189,321.506012 471.490417,312.916199 470.642365,304.332092 
	C469.111053,288.832245 467.516296,273.338593 466.003723,257.836945 
	C464.844299,245.954620 463.809326,234.060165 462.649170,222.177933 
	C461.135864,206.679031 459.519684,191.190170 458.011658,175.690765 
	C456.823029,163.474518 455.768890,151.245193 454.585327,139.028427 
	C453.435303,127.157608 452.178650,115.297165 451.001495,103.428925 
	C449.614380,89.443565 448.262421,75.454712 446.887665,61.390053 
	C445.862366,61.224857 445.226227,61.032848 444.590027,61.032589 
	C392.773254,61.011414 340.956421,60.980907 289.140015,61.114079 
	C287.572205,61.118107 285.357880,62.457005 284.546295,63.826317 
	C277.975739,74.912292 271.629517,86.132309 265.289978,97.353905 
	C253.125763,118.885887 241.011002,140.445816 228.875702,161.994141 
z"/>
<path fill="#EC6337" opacity="1.000000" stroke="none" 
	d="
M474.034332,331.728058 
	C485.497528,331.728058 496.960693,331.728058 509.157196,331.728058 
	C516.010010,401.784241 522.819519,471.397827 529.717407,541.914856 
	C516.006531,541.914856 502.468414,541.914856 488.466003,541.984497 
	C459.176453,541.988525 430.351227,541.914612 401.525909,541.861206 
	C389.045013,541.838074 376.564056,541.857300 363.526459,541.857300 
	C361.260651,511.582306 359.018005,481.616302 356.747650,451.280396 
	C354.832062,451.174561 353.221313,451.008881 351.610504,451.007996 
	C324.280792,450.992950 296.950653,451.072113 269.621887,450.912231 
	C265.922058,450.890564 264.012268,452.114655 262.336243,455.359009 
	C248.346893,482.439056 234.095123,509.383759 220.156479,536.489563 
	C218.042053,540.601379 215.576645,541.992798 210.956192,541.976685 
	C160.630142,541.800903 110.303246,541.868347 59.976585,541.869568 
	C58.317722,541.869629 56.658859,541.869568 53.937611,541.869568 
	C93.151733,471.774628 132.020493,402.296997 171.349014,331.997559 
	C158.704880,331.997559 146.880508,331.997559 134.417694,331.997559 
	C135.335968,330.091766 135.833618,328.900085 136.460480,327.780762 
	C163.715027,279.114014 190.987076,230.457108 218.238205,181.788483 
	C221.791641,175.442276 225.244583,169.039780 228.809875,162.328735 
	C241.011002,140.445816 253.125763,118.885887 265.289978,97.353905 
	C271.629517,86.132309 277.975739,74.912292 284.546295,63.826317 
	C285.357880,62.457005 287.572205,61.118107 289.140015,61.114079 
	C340.956421,60.980907 392.773254,61.011414 444.590027,61.032589 
	C445.226227,61.032848 445.862366,61.224857 446.887665,61.390053 
	C448.262421,75.454712 449.614380,89.443565 451.001495,103.428925 
	C452.178650,115.297165 453.435303,127.157608 454.585327,139.028427 
	C455.768890,151.245193 456.823029,163.474518 458.011658,175.690765 
	C459.519684,191.190170 461.135864,206.679031 462.649170,222.177933 
	C463.809326,234.060165 464.844299,245.954620 466.003723,257.836945 
	C467.516296,273.338593 469.111053,288.832245 470.642365,304.332092 
	C471.490417,312.916199 472.281189,321.506012 473.169006,330.760132 
	C473.240204,331.427032 473.573303,331.746216 473.573303,331.746216 
	C473.573303,331.746216 474.034332,331.728058 474.034332,331.728058 
M311.675568,240.116272 
	C299.425262,270.473206 287.174957,300.830139 274.576843,332.048981 
	C286.918243,332.048981 298.288940,332.048981 309.892426,332.048981 
	C309.344818,334.538116 308.936676,336.393219 308.502136,338.368530 
	C323.351288,338.368530 337.779266,338.368530 352.312927,338.368530 
	C352.312927,336.155212 352.312927,334.251190 352.312927,331.821411 
	C340.552399,331.821411 329.130768,331.821411 317.588135,331.821411 
	C317.588135,296.370300 317.588135,261.446259 317.588135,225.471451 
	C315.437744,230.784943 313.695404,235.090225 311.675568,240.116272 
z"/>
<path fill="#F1BF9E" opacity="1.000000" stroke="none" 
	d="
M473.928070,331.573303 
	C474.034332,331.728058 473.573303,331.746216 473.573303,331.746216 
	C473.573303,331.746216 473.240204,331.427032 473.233765,331.196289 
	C473.454895,331.077911 473.653076,331.228882 473.928070,331.573303 
z"/>
<path fill="#F3DABB" opacity="1.000000" stroke="none" 
	d="
M311.814331,239.755890 
	C313.695404,235.090225 315.437744,230.784943 317.588135,225.471451 
	C317.588135,261.446259 317.588135,296.370300 317.588135,331.821411 
	C329.130768,331.821411 340.552399,331.821411 352.312927,331.821411 
	C352.312927,334.251190 352.312927,336.155212 352.312927,338.368530 
	C337.779266,338.368530 323.351288,338.368530 308.502136,338.368530 
	C308.936676,336.393219 309.344818,334.538116 309.892426,332.048981 
	C298.288940,332.048981 286.918243,332.048981 274.576843,332.048981 
	C287.174957,300.830139 299.425262,270.473206 311.814331,239.755890 
z"/>
</svg>